<svg xmlns="http://www.w3.org/2000/svg" width="28" height="28" viewBox="0 0 28 28" fill="none">
  <circle cx="13.9842" cy="13.9939" r="12.7833" fill="#2295E8" fill-opacity="0.73"/>
  <mask id="mask0_32_129" style="mask-type:alpha" maskUnits="userSpaceOnUse" x="1" y="1" width="26" height="26">
    <circle cx="13.9855" cy="13.9951" r="12.7834" fill="#2295E8"/>
  </mask>
  <g mask="url(#mask0_32_129)">
    <g style="mix-blend-mode:multiply">
      <path d="M14.9555 1.26928C14.1844 1.09792 12.6764 1.93758 10.7058 1.93758C8.99793 1.71481 7.47055 2.42766 10.3631 3.56549C12.1624 4.27325 11.0142 6.70135 12.2823 6.70135C13.5504 6.70135 13.4133 5.0727 14.4586 4.93635C15.5038 4.80001 15.7266 1.44064 14.9555 1.26928Z" fill="#66BE0E" fill-opacity="0.9"/>
    </g>
    <g style="mix-blend-mode:multiply">
      <path d="M11.6762 18.8262C12.4473 20.4884 9.02014 25.5777 8.9516 25.9547L7.06665 25.1322C7.2323 24.4182 7.52932 22.7983 7.39224 22.0306C7.22088 21.071 5.90142 21.5508 5.40448 20.4884C4.90754 19.426 7.64927 17.7638 5.02749 16.7014C2.4057 15.6389 1.00056 12.5031 1.56604 9.70993C2.01843 7.47542 4.33634 5.2489 5.43875 4.41495C6.43263 4.22075 8.09481 4.48692 6.79248 7.10528C5.49015 9.72364 7.11806 8.87028 8.09481 8.1163C9.2886 8.20769 11.3403 8.8223 9.99689 10.5496C8.31757 12.7087 6.77534 13.6512 4.87326 13.9082C2.54279 16.5986 10.9051 17.164 11.6762 18.8262Z" fill="#66BE0E" fill-opacity="0.9"/>
    </g>
    <g style="mix-blend-mode:multiply">
      <path d="M21.6109 21.141C20.5416 24.3625 19.6802 24.2997 19.3832 23.8656C17.4811 23.54 18.4408 21.4665 18.595 20.6954C18.7492 19.9243 18.6464 19.6673 17.2584 18.4164C13.1115 16.9427 15.0136 15.2805 15.2535 14.3894C15.4934 13.4984 19.0919 11.3392 19.9316 14.1324C20.6033 16.3669 21.788 17.0169 22.2963 17.0626C22.5134 17.0798 22.6802 17.9194 21.6109 21.141Z" fill="#66BE0E" fill-opacity="0.9"/>
    </g>
    <g style="mix-blend-mode:multiply">
      <path d="M19.2653 5.04176C20.7047 4.16441 21.9099 4.105 22.3326 4.18497C27.182 6.99525 27.4048 15.5632 26.0682 14.9463C24.7316 14.3294 25.417 12.8214 24.2861 12.9414C23.1551 13.0613 26.0168 14.535 24.029 15.1005C22.0413 15.666 21.3558 11.8618 21.8699 11.4334C22.2812 11.0907 23.4807 11.085 24.029 11.125C24.029 9.53478 23.8082 11.2365 22.761 10.6795C21.7137 10.1224 22.3326 10.6623 19.7451 10.868C15.1698 12.5815 16.5407 10.8337 16.2494 10.4224C15.958 10.0112 17.466 6.13846 19.2653 5.04176Z" fill="#66BE0E" fill-opacity="0.9"/>
    </g>
  </g>
  <g style="mix-blend-mode:color-dodge">
    <circle cx="14" cy="14" r="14" fill="#8FC7EF" fill-opacity="0.31"/>
  </g>
</svg>