<svg width="18" height="18" viewBox="0 0 18 18" fill="none" xmlns="http://www.w3.org/2000/svg">
<path d="M7.5 1.5C7.05 1.5 6.75 1.8 6.75 2.25V15.75C6.75 16.2 7.05 16.5 7.5 16.5C7.95 16.5 8.25 16.2 8.25 15.75V2.25C8.25 1.8 7.95 1.5 7.5 1.5ZM3.75 9C3.3 9 3 9.3 3 9.75V15.75C3 16.2 3.3 16.5 3.75 16.5C4.2 16.5 4.5 16.2 4.5 15.75V9.75C4.5 9.3 4.2 9 3.75 9ZM11.25 6C10.8 6 10.5 6.3 10.5 6.75V15.75C10.5 16.2 10.8 16.5 11.25 16.5C11.7 16.5 12 16.2 12 15.75V6.75C12 6.3 11.7 6 11.25 6ZM15 12C14.55 12 14.25 12.3 14.25 12.75V15.75C14.25 16.2 14.55 16.5 15 16.5C15.45 16.5 15.75 16.2 15.75 15.75V12.75C15.75 12.3 15.45 12 15 12Z" fill="white"/>
</svg>
