<svg xmlns="http://www.w3.org/2000/svg" width="18" height="18" fill="none" viewBox="0 0 18 18"><path fill="#fff" d="M15.6226 5.48999C15.0144 4.35333 14.1264 3.3905 13.0426 2.69249C12.0618 2.0615 10.9473 1.66794 9.78772 1.5431C8.62815 1.41825 7.45544 1.56555 6.36276 1.9733C5.27009 2.38104 4.28756 3.03799 3.49325 3.89195C2.69893 4.74592 2.11471 5.77336 1.78701 6.89265C1.45931 8.01193 1.39716 9.19222 1.60549 10.3397C1.81383 11.4873 2.2869 12.5704 2.98714 13.503C3.68737 14.4357 4.59547 15.1922 5.63927 15.7125C6.68308 16.2327 7.83383 16.5024 9.0001 16.5H9.2176C10.4919 16.4624 11.7356 16.1006 12.8312 15.4487C13.9268 14.7969 14.8381 13.8765 15.4792 12.7746C16.1202 11.6726 16.4698 10.4255 16.4949 9.15087C16.52 7.87627 16.2198 6.61631 15.6226 5.48999ZM8.2501 14.9475C6.80871 14.7555 5.48607 14.0467 4.52812 12.9527C3.57016 11.8587 3.04209 10.4541 3.04209 8.99999C3.04209 7.54587 3.57016 6.14123 4.52812 5.04726C5.48607 3.95329 6.80871 3.24443 8.2501 3.05249V14.9475ZM9.7501 3.05249C10.3985 3.13543 11.0292 3.32285 11.6176 3.60749L9.7501 6.83999V3.05249ZM9.7501 9.80249L12.8776 4.42499C13.3387 4.82095 13.7381 5.28355 14.0626 5.79749L9.7501 13.2675V9.80249ZM10.6126 14.7375L14.8051 7.49999C14.9319 7.99 14.9974 8.49385 15.0001 8.99999C14.9992 10.3095 14.5699 11.5827 13.7777 12.6254C12.9855 13.6681 11.8739 14.4231 10.6126 14.775V14.7375Z"/></svg>